<svg width="32" height="32" viewBox="0 0 32 32" fill="none" xmlns="http://www.w3.org/2000/svg">
<rect width="32" height="32" rx="16" fill="#EF4444"/>
<path d="M21.6131 13.9999C21.5198 13.9932 21.3998 13.9866 21.2665 13.9866C21.0065 13.9866 20.7998 14.1932 20.7998 14.4532V17.5532C20.7998 17.8132 21.0065 18.0199 21.2665 18.0199C21.3998 18.0199 21.5131 18.0132 21.6265 18.0066C22.6665 17.8866 22.6665 17.1532 22.6665 16.6199V15.3799C22.6665 14.8466 22.6665 14.1132 21.6131 13.9999Z" fill="white"/>
<path d="M16.6207 11.1934H12.9007C10.1673 11.1934 9.33398 12.0267 9.33398 14.76V17.24C9.33398 19.9734 10.1673 20.8067 12.9007 20.8067H16.6207C19.354 20.8067 20.1873 19.9734 20.1873 17.24V14.76C20.1873 12.0267 19.354 11.1934 16.6207 11.1934ZM12.734 17.4534C12.6807 17.68 12.474 17.8334 12.2473 17.8334C12.2073 17.8334 12.1673 17.8267 12.1273 17.82C11.8607 17.7534 11.694 17.48 11.7607 17.2134C11.9607 16.42 11.9607 15.58 11.7607 14.7867C11.694 14.52 11.854 14.2467 12.1273 14.18C12.394 14.1134 12.6673 14.28 12.734 14.5467C12.974 15.5 12.974 16.5 12.734 17.4534Z" fill="white"/>
</svg>
