<svg width="32" height="32" viewBox="0 0 32 32" fill="none" xmlns="http://www.w3.org/2000/svg">
<rect width="32" height="32" rx="16" fill="#E8E8EB"/>
<path d="M22.5067 18.6134L18.24 10.9334C17.6667 9.90004 16.8733 9.33337 16 9.33337C15.1267 9.33337 14.3333 9.90004 13.76 10.9334L9.49332 18.6134C8.95332 19.5934 8.89332 20.5334 9.32665 21.2734C9.75999 22.0134 10.6133 22.42 11.7333 22.42H20.2667C21.3867 22.42 22.24 22.0134 22.6733 21.2734C23.1067 20.5334 23.0467 19.5867 22.5067 18.6134ZM15.5 14C15.5 13.7267 15.7267 13.5 16 13.5C16.2733 13.5 16.5 13.7267 16.5 14V17.3334C16.5 17.6067 16.2733 17.8334 16 17.8334C15.7267 17.8334 15.5 17.6067 15.5 17.3334V14ZM16.4733 19.8067C16.44 19.8334 16.4067 19.86 16.3733 19.8867C16.3333 19.9134 16.2933 19.9334 16.2533 19.9467C16.2133 19.9667 16.1733 19.98 16.1267 19.9867C16.0867 19.9934 16.04 20 16 20C15.96 20 15.9133 19.9934 15.8667 19.9867C15.8267 19.98 15.7867 19.9667 15.7467 19.9467C15.7067 19.9334 15.6667 19.9134 15.6267 19.8867C15.5933 19.86 15.56 19.8334 15.5267 19.8067C15.4067 19.68 15.3333 19.5067 15.3333 19.3334C15.3333 19.16 15.4067 18.9867 15.5267 18.86C15.56 18.8334 15.5933 18.8067 15.6267 18.78C15.6667 18.7534 15.7067 18.7334 15.7467 18.72C15.7867 18.7 15.8267 18.6867 15.8667 18.68C15.9533 18.66 16.0467 18.66 16.1267 18.68C16.1733 18.6867 16.2133 18.7 16.2533 18.72C16.2933 18.7334 16.3333 18.7534 16.3733 18.78C16.4067 18.8067 16.44 18.8334 16.4733 18.86C16.5933 18.9867 16.6667 19.16 16.6667 19.3334C16.6667 19.5067 16.5933 19.68 16.4733 19.8067Z" fill="#8B8C9D"/>
</svg>
