<svg width="32" height="32" viewBox="0 0 32 32" fill="none" xmlns="http://www.w3.org/2000/svg">
<rect width="32" height="32" rx="16" fill="#E8E8EB"/>
<g clip-path="url(#clip0_3371_15648)">
<path d="M22.8974 13.36C22.0654 9.656 18.8334 8 16.0014 8C16.0014 8 16.0014 8 15.9934 8C13.1694 8 9.94536 9.656 9.10536 13.352C8.16136 17.48 10.6894 20.976 12.9774 23.184C13.8254 24 14.9134 24.408 16.0014 24.408C17.0894 24.408 18.1774 24 19.0174 23.184C21.3054 20.976 23.8334 17.488 22.8974 13.36ZM18.0254 17.192C17.9054 17.312 17.7534 17.368 17.6014 17.368C17.4494 17.368 17.2974 17.312 17.1774 17.192L16.0174 16.032L14.8254 17.224C14.7054 17.344 14.5534 17.4 14.4014 17.4C14.2494 17.4 14.0974 17.344 13.9774 17.224C13.7454 16.992 13.7454 16.608 13.9774 16.376L15.1694 15.184L14.0094 14.024C13.7774 13.792 13.7774 13.408 14.0094 13.176C14.2414 12.944 14.6254 12.944 14.8574 13.176L16.0174 14.336L17.1374 13.216C17.3694 12.984 17.7534 12.984 17.9854 13.216C18.2174 13.448 18.2174 13.832 17.9854 14.064L16.8654 15.184L18.0254 16.344C18.2574 16.576 18.2574 16.952 18.0254 17.192Z" fill="#8B8C9D"/>
</g>
<defs>
<clipPath id="clip0_3371_15648">
<rect width="19.2" height="19.2" fill="white" transform="translate(6.40039 6.4)"/>
</clipPath>
</defs>
</svg>
