<svg width="32" height="33" viewBox="0 0 32 33" fill="none" xmlns="http://www.w3.org/2000/svg">
<rect y="0.200012" width="32" height="32" rx="16" fill="#E8E8EB"/>
<path d="M24.0004 23.6H23.2004V18.6C23.2004 14.624 19.9764 11.4 16.0004 11.4C12.0244 11.4 8.80039 14.624 8.80039 18.6V23.6H8.00039C7.67239 23.6 7.40039 23.872 7.40039 24.2C7.40039 24.528 7.67239 24.8 8.00039 24.8H24.0004C24.3284 24.8 24.6004 24.528 24.6004 24.2C24.6004 23.872 24.3284 23.6 24.0004 23.6Z" fill="#8B8C9D"/>
<path d="M16.0004 9.60001C15.6724 9.60001 15.4004 9.32801 15.4004 9.00001V8.20001C15.4004 7.87201 15.6724 7.60001 16.0004 7.60001C16.3284 7.60001 16.6004 7.87201 16.6004 8.20001V9.00001C16.6004 9.32801 16.3284 9.60001 16.0004 9.60001Z" fill="#8B8C9D"/>
<path d="M10.4 11.2C10.248 11.2 10.096 11.144 9.97595 11.024L9.17595 10.224C8.94395 9.99201 8.94395 9.60801 9.17595 9.37601C9.40795 9.14401 9.79195 9.14401 10.024 9.37601L10.824 10.176C11.056 10.408 11.056 10.792 10.824 11.024C10.704 11.144 10.552 11.2 10.4 11.2Z" fill="#8B8C9D"/>
<path d="M21.6 11.2C21.448 11.2 21.296 11.144 21.176 11.024C20.944 10.792 20.944 10.408 21.176 10.176L21.976 9.37601C22.208 9.14401 22.592 9.14401 22.824 9.37601C23.056 9.60801 23.056 9.99201 22.824 10.224L22.024 11.024C21.904 11.144 21.752 11.2 21.6 11.2Z" fill="#8B8C9D"/>
</svg>
