<svg width="32" height="32" viewBox="0 0 32 32" fill="none" xmlns="http://www.w3.org/2000/svg">
<rect width="32" height="32" rx="16" fill="#E8E8EB"/>
<path d="M21.6131 14C21.5198 13.9934 21.3998 13.9867 21.2665 13.9867C21.0065 13.9867 20.7998 14.1934 20.7998 14.4534V17.5534C20.7998 17.8134 21.0065 18.02 21.2665 18.02C21.3998 18.02 21.5131 18.0134 21.6265 18.0067C22.6665 17.8867 22.6665 17.1534 22.6665 16.62V15.38C22.6665 14.8467 22.6665 14.1134 21.6131 14Z" fill="#8B8C9D"/>
<path d="M16.6197 11.1934H12.8997C10.1663 11.1934 9.33301 12.0267 9.33301 14.76V17.24C9.33301 19.9734 10.1663 20.8067 12.8997 20.8067H16.6197C19.353 20.8067 20.1863 19.9734 20.1863 17.24V14.76C20.1863 12.0267 19.353 11.1934 16.6197 11.1934ZM12.733 17.4534C12.6797 17.68 12.473 17.8334 12.2463 17.8334C12.2063 17.8334 12.1663 17.8267 12.1263 17.82C11.8597 17.7534 11.693 17.48 11.7597 17.2134C11.9597 16.42 11.9597 15.58 11.7597 14.7867C11.693 14.52 11.853 14.2467 12.1263 14.18C12.393 14.1134 12.6663 14.28 12.733 14.5467C12.973 15.5 12.973 16.5 12.733 17.4534Z" fill="#8B8C9D"/>
</svg>
