<svg width="32" height="32" viewBox="0 0 32 32" fill="none" xmlns="http://www.w3.org/2000/svg">
<rect width="32" height="32" rx="16" fill="#EF4444"/>
<g clip-path="url(#clip0_524_272982)">
<path d="M21.7465 13.8002C21.0532 10.7135 18.3598 9.3335 15.9998 9.3335C15.9998 9.3335 15.9998 9.3335 15.9932 9.3335C13.6398 9.3335 10.9532 10.7135 10.2532 13.7935C9.4665 17.2335 11.5732 20.1468 13.4798 21.9868C14.1865 22.6668 15.0932 23.0068 15.9998 23.0068C16.9065 23.0068 17.8132 22.6668 18.5132 21.9868C20.4198 20.1468 22.5265 17.2402 21.7465 13.8002ZM17.6865 16.9935C17.5865 17.0935 17.4598 17.1402 17.3332 17.1402C17.2065 17.1402 17.0798 17.0935 16.9798 16.9935L16.0132 16.0268L15.0198 17.0202C14.9198 17.1202 14.7932 17.1668 14.6665 17.1668C14.5398 17.1668 14.4132 17.1202 14.3132 17.0202C14.1198 16.8268 14.1198 16.5068 14.3132 16.3135L15.3065 15.3202L14.3398 14.3535C14.1465 14.1602 14.1465 13.8402 14.3398 13.6468C14.5332 13.4535 14.8532 13.4535 15.0465 13.6468L16.0132 14.6135L16.9465 13.6802C17.1398 13.4868 17.4598 13.4868 17.6532 13.6802C17.8465 13.8735 17.8465 14.1935 17.6532 14.3868L16.7198 15.3202L17.6865 16.2868C17.8798 16.4802 17.8798 16.7935 17.6865 16.9935Z" fill="white"/>
</g>
<defs>
<clipPath id="clip0_524_272982">
<rect width="16" height="16" fill="white" transform="translate(8 8)"/>
</clipPath>
</defs>
</svg>
