<svg width="32" height="32" viewBox="0 0 32 32" fill="none" xmlns="http://www.w3.org/2000/svg">
<rect width="32" height="32" rx="16" fill="#EF4444"/>
<path d="M22.6663 22.1667H21.9997V18C21.9997 14.6867 19.313 12 15.9997 12C12.6863 12 9.99967 14.6867 9.99967 18V22.1667H9.33301C9.05967 22.1667 8.83301 22.3933 8.83301 22.6667C8.83301 22.94 9.05967 23.1667 9.33301 23.1667H22.6663C22.9397 23.1667 23.1663 22.94 23.1663 22.6667C23.1663 22.3933 22.9397 22.1667 22.6663 22.1667Z" fill="white"/>
<path d="M16 10.5C15.7267 10.5 15.5 10.2734 15.5 10V9.33337C15.5 9.06004 15.7267 8.83337 16 8.83337C16.2733 8.83337 16.5 9.06004 16.5 9.33337V10C16.5 10.2734 16.2733 10.5 16 10.5Z" fill="white"/>
<path d="M11.3339 11.8333C11.2073 11.8333 11.0806 11.7867 10.9806 11.6867L10.3139 11.02C10.1206 10.8267 10.1206 10.5067 10.3139 10.3133C10.5073 10.12 10.8273 10.12 11.0206 10.3133L11.6873 10.98C11.8806 11.1733 11.8806 11.4933 11.6873 11.6867C11.5873 11.7867 11.4606 11.8333 11.3339 11.8333Z" fill="white"/>
<path d="M20.6663 11.8333C20.5396 11.8333 20.413 11.7867 20.313 11.6867C20.1196 11.4933 20.1196 11.1733 20.313 10.98L20.9796 10.3133C21.173 10.12 21.493 10.12 21.6863 10.3133C21.8796 10.5067 21.8796 10.8267 21.6863 11.02L21.0196 11.6867C20.9196 11.7867 20.793 11.8333 20.6663 11.8333Z" fill="white"/>
</svg>
