<svg width="32" height="32" viewBox="0 0 32 32" fill="none" xmlns="http://www.w3.org/2000/svg">
<rect width="32" height="32" rx="16" fill="#EF4444"/>
<path d="M22.5067 18.6133L18.24 10.9333C17.6667 9.89992 16.8733 9.33325 16 9.33325C15.1267 9.33325 14.3333 9.89992 13.76 10.9333L9.49332 18.6133C8.95332 19.5933 8.89332 20.5333 9.32665 21.2733C9.75999 22.0133 10.6133 22.4199 11.7333 22.4199H20.2667C21.3867 22.4199 22.24 22.0133 22.6733 21.2733C23.1067 20.5333 23.0467 19.5866 22.5067 18.6133ZM15.5 13.9999C15.5 13.7266 15.7267 13.4999 16 13.4999C16.2733 13.4999 16.5 13.7266 16.5 13.9999V17.3333C16.5 17.6066 16.2733 17.8333 16 17.8333C15.7267 17.8333 15.5 17.6066 15.5 17.3333V13.9999ZM16.4733 19.8066C16.44 19.8333 16.4067 19.8599 16.3733 19.8866C16.3333 19.9133 16.2933 19.9333 16.2533 19.9466C16.2133 19.9666 16.1733 19.9799 16.1267 19.9866C16.0867 19.9933 16.04 19.9999 16 19.9999C15.96 19.9999 15.9133 19.9933 15.8667 19.9866C15.8267 19.9799 15.7867 19.9666 15.7467 19.9466C15.7067 19.9333 15.6667 19.9133 15.6267 19.8866C15.5933 19.8599 15.56 19.8333 15.5267 19.8066C15.4067 19.6799 15.3333 19.5066 15.3333 19.3333C15.3333 19.1599 15.4067 18.9866 15.5267 18.8599C15.56 18.8333 15.5933 18.8066 15.6267 18.7799C15.6667 18.7533 15.7067 18.7333 15.7467 18.7199C15.7867 18.6999 15.8267 18.6866 15.8667 18.6799C15.9533 18.6599 16.0467 18.6599 16.1267 18.6799C16.1733 18.6866 16.2133 18.6999 16.2533 18.7199C16.2933 18.7333 16.3333 18.7533 16.3733 18.7799C16.4067 18.8066 16.44 18.8333 16.4733 18.8599C16.5933 18.9866 16.6667 19.1599 16.6667 19.3333C16.6667 19.5066 16.5933 19.6799 16.4733 19.8066Z" fill="white"/>
</svg>
