<svg width="42" height="31" viewBox="0 0 42 31" fill="none" xmlns="http://www.w3.org/2000/svg">
<path d="M18.7827 13.6205C18.7827 16.5205 16.4314 18.8716 13.531 18.8716C10.6306 18.8716 8.2793 16.5205 8.2793 13.6205C8.2793 10.7205 10.6306 8.36939 13.531 8.36939C16.4314 8.36939 18.7827 10.7205 18.7827 13.6205Z" fill="#FCCA83"/>
<path d="M13.531 6.37354C13.1833 6.37354 12.9014 6.09102 12.9014 5.7439V1.26574C12.9014 0.916606 13.1833 0.636086 13.531 0.636086C13.8787 0.636086 14.1605 0.916606 14.1605 1.26574V5.7439C14.1605 6.09102 13.8787 6.37354 13.531 6.37354Z" fill="#FCCA83"/>
<path d="M13.531 26.6055C13.1833 26.6055 12.9014 26.3237 12.9014 25.976V21.4973C12.9014 21.1481 13.1833 20.8676 13.531 20.8676C13.8787 20.8676 14.1605 21.1481 14.1605 21.4973V25.976C14.1605 26.3237 13.8787 26.6055 13.531 26.6055Z" fill="#FCCA83"/>
<path d="M18.6551 8.49655C18.4093 8.25034 18.4093 7.85075 18.6551 7.60454L21.8223 4.43816C22.0681 4.19195 22.4666 4.19195 22.7124 4.43816C22.9585 4.68437 22.9585 5.08192 22.7124 5.32813L19.5454 8.49655C19.2996 8.74073 18.9009 8.74073 18.6551 8.49655Z" fill="#FCCA83"/>
<path d="M4.34939 22.8032C4.10359 22.557 4.10359 22.1574 4.34939 21.9132L7.5166 18.7448C7.7624 18.4986 8.16098 18.4986 8.40698 18.7448C8.65279 18.991 8.65279 19.3906 8.40698 19.6348L5.23978 22.8032C4.99398 23.0474 4.5952 23.0474 4.34939 22.8032Z" fill="#FCCA83"/>
<path d="M20.7783 13.6208C20.7783 13.2737 21.06 12.9912 21.4078 12.9912H25.8869C26.2345 12.9912 26.5164 13.2737 26.5164 13.6208C26.5164 13.968 26.2345 14.2505 25.8869 14.2505H21.4078C21.06 14.2505 20.7783 13.968 20.7783 13.6208Z" fill="#FCCA83"/>
<path d="M0.545898 13.6208C0.545898 13.2737 0.827826 12.9912 1.17554 12.9912H5.65451C6.00223 12.9912 6.28416 13.2737 6.28416 13.6208C6.28416 13.968 6.00223 14.2505 5.65451 14.2505H1.17554C0.827826 14.2505 0.545898 13.968 0.545898 13.6208Z" fill="#FCCA83"/>
<path d="M18.6551 18.7448C18.9009 18.4986 19.2996 18.4986 19.5454 18.7448L22.7124 21.9132C22.9585 22.1574 22.9585 22.557 22.7124 22.8032C22.4666 23.0474 22.0681 23.0474 21.8223 22.8032L18.6551 19.6348C18.4093 19.3906 18.4093 18.991 18.6551 18.7448Z" fill="#FCCA83"/>
<path d="M4.34939 4.43816C4.5952 4.19195 4.99398 4.19195 5.23978 4.43816L8.40698 7.60454C8.65279 7.85075 8.65279 8.25034 8.40698 8.49655C8.16098 8.74073 7.7624 8.74073 7.5166 8.49655L4.34939 5.32813C4.10359 5.08192 4.10359 4.68437 4.34939 4.43816Z" fill="#FCCA83"/>
<path d="M37.594 22.801C37.5771 22.801 37.5615 22.805 37.5446 22.805C37.8558 22.0845 38.0301 21.2914 38.0301 20.458C38.0301 17.1866 35.3786 14.5368 32.108 14.5368C30.9521 14.5368 29.8768 14.8719 28.9655 15.445C27.7324 12.4481 24.7868 10.3352 21.3449 10.3352C16.7941 10.3352 13.105 14.0263 13.105 18.5771C13.105 18.9202 13.1329 19.2572 13.1736 19.5902C13.1506 19.5902 13.1282 19.5861 13.105 19.5861C10.0537 19.5861 7.58008 22.0603 7.58008 25.1115C7.58008 28.1627 10.0537 30.6362 13.105 30.6362H37.594C39.758 30.6362 41.5122 28.8821 41.5122 26.7181C41.5122 24.5543 39.758 22.801 37.594 22.801Z" fill="#DFEBFD"/>
</svg>
