<svg width="32" height="32" viewBox="0 0 32 32" fill="none" xmlns="http://www.w3.org/2000/svg">
<rect width="32" height="32" rx="16" fill="#FDECEC"/>
<path opacity="0.4" d="M16.93 8.79004H11.35C7.25 8.79004 6 10.04 6 14.14V17.86C6 21.96 7.25 23.21 11.35 23.21H16.93C21.03 23.21 22.28 21.96 22.28 17.86V14.14C22.28 10.04 21.03 8.79004 16.93 8.79004Z" fill="#EF4444"/>
<path d="M24.4192 13.0005C24.2792 12.9905 24.0992 12.9805 23.8992 12.9805C23.5092 12.9805 23.1992 13.2905 23.1992 13.6805V18.3305C23.1992 18.7205 23.5092 19.0305 23.8992 19.0305C24.0992 19.0305 24.2692 19.0205 24.4392 19.0105C25.9992 18.8305 25.9992 17.7305 25.9992 16.9305V15.0705C25.9992 14.2705 25.9992 13.1705 24.4192 13.0005Z" fill="#EF4444"/>
<path d="M10.3806 18.7501C10.3206 18.7501 10.2606 18.7401 10.2006 18.7301C9.80056 18.6301 9.55056 18.2201 9.65056 17.8201C9.95056 16.6301 9.95056 15.3701 9.65056 14.1801C9.55056 13.7801 9.79056 13.3701 10.2006 13.2701C10.6006 13.1701 11.0006 13.4201 11.1006 13.8201C11.4606 15.2501 11.4606 16.7601 11.1006 18.1801C11.0206 18.5201 10.7106 18.7501 10.3806 18.7501Z" fill="#EF4444"/>
<path d="M13.8796 18.7502C13.8196 18.7502 13.7596 18.7402 13.6996 18.7302C13.2996 18.6302 13.0496 18.2202 13.1496 17.8202C13.4496 16.6302 13.4496 15.3702 13.1496 14.1802C13.0496 13.7802 13.2896 13.3702 13.6996 13.2702C14.0996 13.1702 14.5096 13.4102 14.6096 13.8202C14.9696 15.2502 14.9696 16.7602 14.6096 18.1802C14.5196 18.5202 14.2096 18.7502 13.8796 18.7502Z" fill="#EF4444"/>
</svg>
