<svg width="32" height="32" viewBox="0 0 32 32" fill="none" xmlns="http://www.w3.org/2000/svg">
<path d="M20.9504 22.3642L9.63664 11.0505C9.25009 10.664 9.25009 10.0229 9.63664 9.63631C10.0232 9.24975 10.6643 9.24975 11.0509 9.63631L22.3646 20.95C22.7511 21.3366 22.7511 21.9777 22.3646 22.3642C21.978 22.7508 21.3369 22.7508 20.9504 22.3642Z" fill="#8B8C9D"/>
<path d="M9.63543 22.3642C9.24888 21.9777 9.24888 21.3366 9.63543 20.95L20.9491 9.63631C21.3357 9.24975 21.9768 9.24975 22.3634 9.63631C22.7499 10.0229 22.7499 10.664 22.3634 11.0505L11.0496 22.3642C10.6631 22.7508 10.022 22.7508 9.63543 22.3642Z" fill="#8B8C9D"/>
</svg>
