<svg width="32" height="32" viewBox="0 0 32 32" fill="none" xmlns="http://www.w3.org/2000/svg">
<rect width="32" height="32" rx="16" fill="#FFF1E8"/>
<path fill-rule="evenodd" clip-rule="evenodd" d="M13.2413 7.13975C14.9705 5.62008 17.5943 5.62008 19.3235 7.13975C20.232 7.93809 21.2895 8.54865 22.4351 8.93619C24.6157 9.67388 25.9277 11.9462 25.4762 14.2036C25.239 15.3894 25.239 16.6106 25.4762 17.7964C25.9277 20.0538 24.6157 22.3261 22.4351 23.0638C21.2895 23.4514 20.232 24.0619 19.3235 24.8603C17.5944 26.3799 14.9705 26.3799 13.2413 24.8603C12.3329 24.0619 11.2754 23.4514 10.1298 23.0638C7.94912 22.3261 6.63719 20.0538 7.08867 17.7964C7.32584 16.6106 7.32584 15.3894 7.08867 14.2036C6.63719 11.9462 7.94912 9.67388 10.1298 8.93619C11.2754 8.54865 12.3329 7.93809 13.2413 7.13975ZM15.2646 8.97625C15.2646 8.62414 14.8496 8.43633 14.5851 8.66877C13.4748 9.64453 12.1823 10.3908 10.7821 10.8644C10.4485 10.9773 10.4036 11.4306 10.7086 11.6067L12.9186 12.8827C13.9613 13.4847 15.2646 12.7322 15.2646 11.5282V8.97625ZM11.9008 17.3545C12.9435 16.7525 12.9435 15.2475 11.9008 14.6455L9.69079 13.3696C9.38585 13.1935 9.01566 13.4591 9.08471 13.8043C9.3746 15.2538 9.3746 16.7462 9.08471 18.1957C9.01566 18.5409 9.38585 18.8065 9.69079 18.6304L11.9008 17.3545ZM10.7086 20.3933C10.4036 20.5694 10.4485 21.0227 10.7821 21.1356C12.1823 21.6092 13.4748 22.3555 14.5851 23.3312C14.8496 23.5637 15.2646 23.3759 15.2646 23.0237L15.2646 20.4718C15.2646 19.2678 13.9613 18.5153 12.9186 19.1173L10.7086 20.3933ZM19.6462 19.1173C18.6036 18.5153 17.3002 19.2678 17.3002 20.4718V23.0237C17.3002 23.3759 17.7153 23.5637 17.9798 23.3312C19.0901 22.3555 20.3826 21.6092 21.7828 21.1356C22.1163 21.0227 22.1612 20.5694 21.8563 20.3933L19.6462 19.1173ZM22.8741 18.6304C23.179 18.8065 23.5492 18.5409 23.4801 18.1957C23.1903 16.7462 23.1903 15.2538 23.4801 13.8043C23.5492 13.4591 23.179 13.1935 22.8741 13.3696L20.664 14.6455C19.6213 15.2475 19.6213 16.7525 20.664 17.3545L22.8741 18.6304ZM17.3002 11.5282C17.3002 12.7322 18.6036 13.4847 19.6462 12.8827L21.8563 11.6067C22.1612 11.4306 22.1163 10.9773 21.7828 10.8644C20.3826 10.3908 19.0901 9.64453 17.9798 8.66877C17.7153 8.43633 17.3002 8.62414 17.3002 8.97625V11.5282Z" fill="#FF731D"/>
</svg>
