<svg width="40" height="40" viewBox="0 0 40 40" fill="none" xmlns="http://www.w3.org/2000/svg">
<circle cx="20" cy="20" r="20" fill="white"/>
<path d="M28 17.6C28 13.6 26.4 12 22.4 12H17.6C13.6 12 12 13.6 12 17.6V22.4C12 26.4 13.6 28 17.6 28" stroke="#33B938" stroke-width="1.5" stroke-linecap="round" stroke-linejoin="round"/>
<path d="M24.35 16C23.8 15.3 22.88 15 21.5 15H18.5C16 15 15 16 15 18.5V21.5C15 22.88 15.3 23.8 15.99 24.35" stroke="#33B938" stroke-width="1.5" stroke-linecap="round" stroke-linejoin="round"/>
<path d="M16.0117 12V10" stroke="#33B938" stroke-width="1.5" stroke-linecap="round" stroke-linejoin="round"/>
<path d="M20 12V10" stroke="#33B938" stroke-width="1.5" stroke-linecap="round" stroke-linejoin="round"/>
<path d="M24 12V10" stroke="#33B938" stroke-width="1.5" stroke-linecap="round" stroke-linejoin="round"/>
<path d="M28 16H30" stroke="#33B938" stroke-width="1.5" stroke-linecap="round" stroke-linejoin="round"/>
<path d="M16.0117 28V30" stroke="#33B938" stroke-width="1.5" stroke-linecap="round" stroke-linejoin="round"/>
<path d="M10 16H12" stroke="#33B938" stroke-width="1.5" stroke-linecap="round" stroke-linejoin="round"/>
<path d="M10 20H12" stroke="#33B938" stroke-width="1.5" stroke-linecap="round" stroke-linejoin="round"/>
<path d="M10 24H12" stroke="#33B938" stroke-width="1.5" stroke-linecap="round" stroke-linejoin="round"/>
<path d="M24.7111 26.59C25.5892 26.59 26.3011 25.8782 26.3011 25C26.3011 24.1219 25.5892 23.41 24.7111 23.41C23.833 23.41 23.1211 24.1219 23.1211 25C23.1211 25.8782 23.833 26.59 24.7111 26.59Z" stroke="#33B938" stroke-width="1.5" stroke-miterlimit="10" stroke-linecap="round" stroke-linejoin="round"/>
<path d="M19.4102 25.46V24.53C19.4102 23.98 19.8602 23.53 20.4102 23.53C21.3702 23.53 21.7602 22.85 21.2802 22.02C21.0002 21.54 21.1702 20.92 21.6502 20.65L22.5602 20.12C22.9802 19.87 23.5202 20.02 23.7702 20.44L23.8302 20.54C24.3102 21.37 25.0902 21.37 25.5702 20.54L25.6302 20.44C25.8802 20.02 26.4202 19.88 26.8402 20.12L27.7502 20.65C28.2302 20.93 28.4002 21.54 28.1202 22.02C27.6402 22.85 28.0302 23.53 28.9902 23.53C29.5402 23.53 29.9902 23.98 29.9902 24.53V25.46C29.9902 26.01 29.5402 26.46 28.9902 26.46C28.0302 26.46 27.6402 27.14 28.1202 27.97C28.4002 28.45 28.2302 29.07 27.7502 29.34L26.8402 29.87C26.4202 30.12 25.8802 29.97 25.6302 29.55L25.5702 29.45C25.0902 28.62 24.3102 28.62 23.8302 29.45L23.7702 29.55C23.5202 29.97 22.9802 30.11 22.5602 29.87L21.6502 29.34C21.1702 29.06 21.0002 28.45 21.2802 27.97C21.7602 27.14 21.3702 26.46 20.4102 26.46C19.8602 26.47 19.4102 26.02 19.4102 25.46Z" stroke="#33B938" stroke-width="1.5" stroke-miterlimit="10" stroke-linecap="round" stroke-linejoin="round"/>
</svg>
