<svg width="16" height="16" viewBox="0 0 16 16" fill="none" xmlns="http://www.w3.org/2000/svg">
<path fill-rule="evenodd" clip-rule="evenodd" d="M7.99967 14.6663C4.31778 14.6663 1.33301 11.6816 1.33301 7.99967C1.33301 4.31778 4.31778 1.33301 7.99967 1.33301C11.6816 1.33301 14.6663 4.31778 14.6663 7.99967C14.6663 11.6816 11.6816 14.6663 7.99967 14.6663ZM7.99967 2.66634C5.05416 2.66634 2.66634 5.05416 2.66634 7.99967C2.66634 10.9452 5.05416 13.333 7.99967 13.333C10.9452 13.333 13.333 10.9452 13.333 7.99967C13.333 5.05416 10.9452 2.66634 7.99967 2.66634ZM10.4711 5.52827C10.7314 5.78862 10.7314 6.21073 10.4711 6.47108L8.94248 7.99967L10.4711 9.52827C10.7314 9.78862 10.7314 10.2107 10.4711 10.4711C10.2107 10.7314 9.78862 10.7314 9.52827 10.4711L7.99967 8.94248L6.47108 10.4711C6.21073 10.7314 5.78862 10.7314 5.52827 10.4711C5.26792 10.2107 5.26792 9.78862 5.52827 9.52827L7.05687 7.99967L5.52827 6.47108C5.26792 6.21073 5.26792 5.78862 5.52827 5.52827C5.78862 5.26792 6.21073 5.26792 6.47108 5.52827L7.99967 7.05687L9.52827 5.52827C9.78862 5.26792 10.2107 5.26792 10.4711 5.52827Z" fill="#EF4444"/>
</svg>
