<svg width="115" height="28" viewBox="0 0 115 28" fill="none" xmlns="http://www.w3.org/2000/svg">
<path d="M26.9373 0V16.4376C26.9373 22.8281 21.7491 27.9999 15.375 27.9999V11.5623C15.375 5.17174 20.5632 0 26.9373 0Z" fill="#058071"/>
<path d="M13.5467 27.9996C7.15612 27.9996 1.98438 22.8114 1.98438 16.4373V6.58789C8.37494 6.58789 13.5467 11.7761 13.5467 18.1502V27.9996Z" fill="#058071"/>
<path d="M46.94 21.1998C45.9667 21.1998 45.06 21.0131 44.22 20.6398C43.3933 20.2665 42.66 19.7598 42.02 19.1198C41.38 18.4798 40.88 17.7331 40.52 16.8798C40.1733 16.0131 40 15.0531 40 13.9998C40 12.9865 40.1733 12.0398 40.52 11.1598C40.88 10.2798 41.38 9.51981 42.02 8.87981C42.66 8.2398 43.3933 7.73314 44.22 7.3598C45.06 6.98647 45.9667 6.7998 46.94 6.7998C47.9133 6.7998 48.8267 6.99314 49.68 7.3798C50.5467 7.76647 51.3267 8.33981 52.02 9.0998L50.96 9.93981C50.4133 9.35314 49.7933 8.89981 49.1 8.5798C48.42 8.24647 47.7 8.0798 46.94 8.0798C46.1533 8.0798 45.4267 8.23314 44.76 8.5398C44.0933 8.84647 43.5 9.27314 42.98 9.81981C42.4733 10.3398 42.0733 10.9598 41.78 11.6798C41.4867 12.3865 41.34 13.1598 41.34 13.9998C41.34 14.8531 41.4867 15.6331 41.78 16.3398C42.0733 17.0465 42.4733 17.6665 42.98 18.1998C43.5 18.7331 44.0933 19.1531 44.76 19.4598C45.4267 19.7665 46.1533 19.9198 46.94 19.9198C47.7 19.9198 48.42 19.7598 49.1 19.4398C49.7933 19.1065 50.4133 18.6465 50.96 18.0598L52.02 18.9198C51.3267 19.6798 50.5467 20.2531 49.68 20.6398C48.8267 21.0131 47.9133 21.1998 46.94 21.1998Z" fill="#058071"/>
<path d="M58.258 21.2398C57.3113 21.2398 56.4713 21.0331 55.738 20.6198C55.018 20.1931 54.4513 19.6065 54.038 18.8598C53.6246 18.0998 53.418 17.2198 53.418 16.2198C53.418 15.0465 53.6313 14.0665 54.058 13.2798C54.498 12.4931 55.0846 11.8998 55.818 11.4998C56.5513 11.0998 57.3646 10.8998 58.258 10.8998C59.2046 10.8998 60.0446 11.0998 60.778 11.4998C61.5113 11.8998 62.078 12.4931 62.478 13.2798C62.8913 14.0665 63.098 15.0465 63.098 16.2198C63.098 17.2198 62.8913 18.0998 62.478 18.8598C62.078 19.6065 61.5113 20.1931 60.778 20.6198C60.0446 21.0331 59.2046 21.2398 58.258 21.2398ZM58.258 19.9598C59.018 19.9598 59.6646 19.7931 60.198 19.4598C60.7313 19.1265 61.1313 18.6798 61.398 18.1198C61.678 17.5465 61.818 16.9131 61.818 16.2198C61.818 15.0465 61.5113 14.0798 60.898 13.3198C60.2846 12.5598 59.4046 12.1798 58.258 12.1798C57.4713 12.1798 56.8113 12.3598 56.278 12.7198C55.758 13.0665 55.3646 13.5465 55.098 14.1598C54.8313 14.7598 54.698 15.4465 54.698 16.2198C54.698 16.9265 54.8313 17.5665 55.098 18.1398C55.3646 18.6998 55.758 19.1465 56.278 19.4798C56.8113 19.7998 57.4713 19.9598 58.258 19.9598Z" fill="#058071"/>
<path d="M75.467 6.9998L71.207 20.9998H68.967L64.707 6.9998H67.267L70.087 17.4998L72.907 6.9998H75.467Z" fill="#058071"/>
<path d="M85.0488 16.9198H78.0488C78.1021 17.5198 78.3288 17.9798 78.7288 18.2998C79.1288 18.6198 79.6221 18.8065 80.2088 18.8598C80.7954 18.8998 81.3954 18.8198 82.0088 18.6198C82.6354 18.4065 83.1954 18.0865 83.6888 17.6598L85.0088 19.4798C84.2754 20.0931 83.5288 20.5331 82.7688 20.7998C82.0221 21.0531 81.2821 21.1798 80.5488 21.1798C78.8554 21.1798 77.5821 20.7065 76.7288 19.7598C75.8888 18.8131 75.4688 17.4731 75.4688 15.7398C75.4688 14.7531 75.6621 13.8931 76.0488 13.1598C76.4488 12.4265 77.0088 11.8598 77.7288 11.4598C78.4621 11.0598 79.3221 10.8665 80.3088 10.8798C82.4688 10.9065 83.9087 11.7531 84.6287 13.4198C84.8288 13.8998 84.9554 14.4265 85.0088 14.9998C85.0754 15.5731 85.0888 16.2131 85.0488 16.9198ZM80.5288 13.1198C79.7154 13.1198 79.0954 13.3398 78.6688 13.7798C78.2554 14.2198 78.0488 14.7065 78.0488 15.2398H82.9888C82.9888 14.6931 82.7754 14.2065 82.3488 13.7798C81.9354 13.3398 81.3288 13.1198 80.5288 13.1198Z" fill="#058071"/>
<path d="M95.8992 20.9998H93.4992V15.1598C93.4992 14.6131 93.3926 14.2065 93.1792 13.9398C92.9792 13.6598 92.7259 13.4731 92.4192 13.3798C92.1259 13.2865 91.8392 13.2398 91.5592 13.2398C91.2926 13.2398 90.9792 13.2865 90.6192 13.3798C90.2726 13.4731 89.9659 13.6598 89.6992 13.9398C89.4326 14.2065 89.2992 14.6131 89.2992 15.1598V20.9998H86.8992V10.9998H89.2992V11.7198C89.5259 11.4131 89.8792 11.1998 90.3592 11.0798C90.8392 10.9465 91.2992 10.8798 91.7392 10.8798C92.5926 10.8798 93.3259 11.0598 93.9392 11.4198C94.5659 11.7798 95.0459 12.2798 95.3792 12.9198C95.7259 13.5598 95.8992 14.3065 95.8992 15.1598V20.9998Z" fill="#058071"/>
<path d="M98.96 16.4598V13.2198H97.5V10.9998H98.96V6.9998H101.32V10.9998H102.88V13.2198H101.32V16.4598C101.32 17.0598 101.367 17.5131 101.46 17.8198C101.553 18.1265 101.68 18.3398 101.84 18.4598C102.013 18.5665 102.2 18.6265 102.4 18.6398C102.613 18.6531 102.827 18.6598 103.04 18.6598H103.38V21.0398H103.08C102.347 21.0398 101.72 20.9865 101.2 20.8798C100.68 20.7731 100.253 20.5665 99.92 20.2598C99.5867 19.9398 99.34 19.4798 99.18 18.8798C99.0333 18.2665 98.96 17.4598 98.96 16.4598Z" fill="#058071"/>
<path d="M106.64 9.81981C106.227 9.81981 105.88 9.67981 105.6 9.3998C105.32 9.11981 105.18 8.77314 105.18 8.35981C105.18 7.9598 105.32 7.6198 105.6 7.3398C105.88 7.0598 106.227 6.9198 106.64 6.9198C107.04 6.9198 107.38 7.0598 107.66 7.3398C107.94 7.6198 108.08 7.9598 108.08 8.35981C108.08 8.77314 107.94 9.11981 107.66 9.3998C107.38 9.67981 107.04 9.81981 106.64 9.81981ZM107.74 20.9998H105.54V10.9998H107.74V20.9998Z" fill="#058071"/>
<path d="M112.483 20.9998H110.083V6.9998H112.483V20.9998Z" fill="#058071"/>
</svg>
