<svg width="32" height="32" viewBox="0 0 32 32" fill="none" xmlns="http://www.w3.org/2000/svg">
<rect width="32" height="32" rx="16" fill="#EFF5FE"/>
<path d="M21.3108 15.25C21.3308 15.51 21.2408 15.78 21.0408 15.98L15.0208 22C13.6908 23.33 12.3508 23.33 11.0108 22L7.00083 17.99C6.32083 17.3 5.98083 16.61 6.00083 15.92H6.07083L21.1908 15.26L21.3108 15.25Z" fill="#5F9DF7"/>
<path opacity="0.4" d="M21.04 14.6397L13.69 7.28964L12.82 6.41965C12.53 6.12965 12.05 6.12965 11.76 6.41965C11.47 6.70965 11.47 7.18965 11.76 7.47965L12.63 8.34964L7 13.9796C6.36 14.6196 6.02 15.2696 6 15.9196H6.07L21.19 15.2597L21.31 15.2497C21.3 15.0297 21.2 14.7997 21.04 14.6397Z" fill="#5F9DF7"/>
<path d="M20 26.7495H7C6.59 26.7495 6.25 26.4095 6.25 25.9995C6.25 25.5895 6.59 25.2495 7 25.2495H20C20.41 25.2495 20.75 25.5895 20.75 25.9995C20.75 26.4095 20.41 26.7495 20 26.7495Z" fill="#5F9DF7"/>
<path d="M23.35 18.7803C23.09 18.5003 22.61 18.5003 22.35 18.7803C22.04 19.1203 20.5 20.8603 20.5 22.1703C20.5 23.4703 21.55 24.5203 22.85 24.5203C24.15 24.5203 25.2 23.4703 25.2 22.1703C25.2 20.8603 23.66 19.1203 23.35 18.7803Z" fill="#5F9DF7"/>
</svg>
