<svg width="16" height="17" viewBox="0 0 16 17" fill="none" xmlns="http://www.w3.org/2000/svg">
<path d="M11.5399 7.32038L11.5399 7.32043L11.5458 7.31434C11.9233 6.92389 11.9317 6.29845 11.5399 5.90661C11.1513 5.51801 10.5147 5.51801 10.1261 5.90661L7.05301 8.97972L5.87323 7.79994C5.48463 7.41135 4.84805 7.41135 4.45945 7.79994C4.07086 8.18854 4.07086 8.82512 4.45945 9.21372L6.34612 11.1004L6.69967 10.7468L6.34612 11.1004C6.53215 11.2864 6.78556 11.3935 7.05301 11.3935C7.32046 11.3935 7.57386 11.2864 7.75989 11.1004L11.5399 7.32038ZM1.83301 8.50016C1.83301 5.10297 4.60248 2.3335 7.99967 2.3335C11.3969 2.3335 14.1663 5.10297 14.1663 8.50016C14.1663 11.8974 11.3969 14.6668 7.99967 14.6668C4.60248 14.6668 1.83301 11.8974 1.83301 8.50016Z" fill="#6FDDA6" stroke="#6FDDA6"/>
</svg>
