<svg width="121" height="120" viewBox="0 0 121 120" fill="none" xmlns="http://www.w3.org/2000/svg">
<path opacity="0.4" d="M60.5 110C88.1142 110 110.5 87.6142 110.5 60C110.5 32.3858 88.1142 10 60.5 10C32.8858 10 10.5 32.3858 10.5 60C10.5 87.6142 32.8858 110 60.5 110Z" fill="#33B938"/>
<path d="M53.3973 77.9005C52.3973 77.9005 51.4473 77.5005 50.7473 76.8005L36.5973 62.6505C35.1473 61.2005 35.1473 58.8005 36.5973 57.3505C38.0473 55.9005 40.4473 55.9005 41.8973 57.3505L53.3973 68.8505L79.0973 43.1505C80.5473 41.7005 82.9473 41.7005 84.3973 43.1505C85.8473 44.6005 85.8473 47.0005 84.3973 48.4505L56.0473 76.8005C55.3473 77.5005 54.3973 77.9005 53.3973 77.9005Z" fill="#33B938"/>
</svg>
