<svg width="32" height="32" viewBox="0 0 32 32" fill="none" xmlns="http://www.w3.org/2000/svg">
<circle cx="16" cy="16" r="15.5" fill="white" stroke="#E8E8EB"/>
<path d="M22.4003 21.3081H15.1443C15.0604 21.3081 14.9883 21.236 14.9883 21.1521C14.9883 21.0682 15.0604 20.9961 15.1443 20.9961H22.4003C22.4841 20.9961 22.5563 21.0682 22.5563 21.1521C22.5563 21.24 22.4881 21.3081 22.4003 21.3081Z" fill="#A2A3B1" stroke="#FF731D"/>
<path d="M22.4003 16.2759H15.1443C15.0604 16.2759 14.9883 16.2037 14.9883 16.1199C14.9883 16.036 15.0604 15.9639 15.1443 15.9639H22.4003C22.4841 15.9639 22.5563 16.036 22.5563 16.1199C22.5563 16.2037 22.4841 16.2759 22.4003 16.2759Z" fill="#A2A3B1" stroke="#FF731D"/>
<path d="M22.4003 11.2358H15.1443C15.0604 11.2358 14.9883 11.1637 14.9883 11.0798C14.9883 10.996 15.0604 10.9238 15.1443 10.9238H22.4003C22.4841 10.9238 22.5563 10.996 22.5563 11.0798C22.5563 11.1637 22.4841 11.2358 22.4003 11.2358Z" fill="#A2A3B1" stroke="#FF731D"/>
<path opacity="0.4" d="M9.97478 11.5935L10.3283 11.947L10.6819 11.5935L12.3939 9.88149C12.4546 9.82075 12.554 9.82075 12.6148 9.88149L12.8936 9.60263L12.6148 9.88149C12.6755 9.94223 12.6755 10.0416 12.6148 10.1024L10.4458 12.2714C10.3997 12.313 10.3598 12.3239 10.3283 12.3239C10.2871 12.3239 10.2457 12.3061 10.2179 12.2784L9.48989 11.5504C9.42915 11.4896 9.42915 11.3902 9.48989 11.3295C9.55063 11.2688 9.65004 11.2688 9.71078 11.3295L9.97478 11.5935Z" fill="#A2A3B1" stroke="#FF731D"/>
<path opacity="0.4" d="M9.97478 16.6335L10.3283 16.9871L10.6819 16.6335L12.3939 14.9215C12.4546 14.8608 12.554 14.8608 12.6148 14.9215L12.8936 14.6427L12.6148 14.9215C12.6755 14.9823 12.6755 15.0817 12.6148 15.1424L10.4388 17.3184C10.4085 17.3487 10.3694 17.364 10.3283 17.364C10.2872 17.364 10.2482 17.3487 10.2179 17.3184L9.48989 16.5904C9.42915 16.5297 9.42915 16.4303 9.48989 16.3695C9.55063 16.3088 9.65004 16.3088 9.71078 16.3695L9.97478 16.6335Z" fill="#A2A3B1" stroke="#FF731D"/>
<path opacity="0.4" d="M9.97478 21.4333L10.3283 21.7869L10.6819 21.4333L12.3939 19.7213C12.4546 19.6606 12.554 19.6606 12.6148 19.7213L12.9683 19.3678L12.6148 19.7213C12.6755 19.7821 12.6755 19.8815 12.6148 19.9422L10.4388 22.1182C10.4085 22.1485 10.3694 22.1638 10.3283 22.1638C10.2872 22.1638 10.2482 22.1485 10.2179 22.1182L9.48989 21.3902C9.42915 21.3295 9.42915 21.2301 9.48989 21.1693C9.55063 21.1086 9.65004 21.1086 9.71078 21.1693L9.97478 21.4333Z" fill="#A2A3B1" stroke="#FF731D"/>
</svg>
