<svg width="121" height="120" viewBox="0 0 121 120" fill="none" xmlns="http://www.w3.org/2000/svg">
<path opacity="0.4" d="M105.901 42.9002V77.1C105.901 82.7 102.901 87.9002 98.051 90.7502L68.351 107.9C63.501 110.7 57.5008 110.7 52.6008 107.9L22.9008 90.7502C18.0508 87.9502 15.0508 82.75 15.0508 77.1V42.9002C15.0508 37.3002 18.0508 32.1 22.9008 29.25L52.6008 12.1C57.4508 9.3 63.451 9.3 68.351 12.1L98.051 29.25C102.901 32.1 105.901 37.2502 105.901 42.9002Z" fill="#FAA730"/>
<path d="M60.5 68.75C58.45 68.75 56.75 67.05 56.75 65V38.75C56.75 36.7 58.45 35 60.5 35C62.55 35 64.25 36.7 64.25 38.75V65C64.25 67.05 62.55 68.75 60.5 68.75Z" fill="#FAA730"/>
<path d="M60.5 86.2493C59.85 86.2493 59.2 86.0992 58.6 85.8492C57.95 85.5992 57.4499 85.2494 56.9499 84.7994C56.4999 84.2994 56.15 83.7493 55.85 83.1493C55.6 82.5493 55.5 81.8993 55.5 81.2493C55.5 79.9493 55.9999 78.6492 56.9499 77.6992C57.4499 77.2492 57.95 76.8994 58.6 76.6494C60.45 75.8494 62.6501 76.2992 64.0501 77.6992C64.5001 78.1992 64.8499 78.6993 65.0999 79.3493C65.3499 79.9493 65.5 80.5993 65.5 81.2493C65.5 81.8993 65.3499 82.5493 65.0999 83.1493C64.8499 83.7493 64.5001 84.2994 64.0501 84.7994C63.1001 85.7494 61.85 86.2493 60.5 86.2493Z" fill="#FAA730"/>
</svg>
